<svg role="img" viewBox="0 0 24 24" xmlns="http://www.w3.org/2000/svg">
  <title>GitLab</title>
  <defs>
    <clipPath id="gitlab-mark">
      <path d="m23.6004 9.5927-.0337-.0862L20.3.9814a.851.851 0 0 0-.3362-.405.8748.8748 0 0 0-.9997.0539.8748.8748 0 0 0-.29.4399l-2.2055 6.748H7.5375l-2.2057-6.748a.8573.8573 0 0 0-.29-.4412.8748.8748 0 0 0-.9997-.0537.8585.8585 0 0 0-.3362.4049L.4332 9.5015l-.0325.0862a6.0657 6.0657 0 0 0 2.0119 7.0105l.0113.0087.03.0213 4.976 3.7264 2.462 1.8633 1.4995 1.1321a1.0085 1.0085 0 0 0 1.2197 0l1.4995-1.1321 2.4619-1.8633 5.006-3.7489.0125-.01a6.0682 6.0682 0 0 0 2.0094-7.003z"/>
    </clipPath>
  </defs>
  <g clip-path="url(#gitlab-mark)">
    <polygon points="0 9.4 5.35 0.85 8.2 9.2 12 22.4" fill="#E24329"/>
    <polygon points="24 9.4 18.65 0.85 15.8 9.2 12 22.4" fill="#E24329"/>
    <polygon points="5.35 0.85 7.55 7.82 12 22.4 0.15 9.55" fill="#FC6D26"/>
    <polygon points="18.65 0.85 16.45 7.82 12 22.4 23.85 9.55" fill="#FC6D26"/>
    <polygon points="7.55 7.82 16.45 7.82 12 22.4" fill="#FCA326"/>
  </g>
</svg>
