<svg width="64" height="64" viewBox="0 0 64 64" xmlns="http://www.w3.org/2000/svg">
  <title>llama.cpp</title>
  <rect width="64" height="64" rx="14" fill="#1B1E1F"/>
  <path d="M29.6 11C18.9 11 10.5 20.3 10.5 32C10.5 43.7 18.9 53 29.6 53C35.2 53 39.8 50.9 43.4 47.1L36.7 40.7C34.9 42.7 32.4 43.8 29.6 43.8C23.9 43.8 19.5 38.8 19.5 32C19.5 25.2 23.9 20.2 29.6 20.2C32.4 20.2 34.9 21.4 36.7 23.3L43.4 16.9C39.8 13.1 35.2 11 29.6 11Z" fill="#FF8A33"/>
  <path d="M24.3 28.5H35.6V35.8H24.3V28.5Z" fill="#1B1E1F"/>
  <path d="M43.8 24.5H48V29H52.5V33.2H48V37.8H43.8V33.2H39.2V29H43.8V24.5Z" fill="#FF8A33"/>
  <path d="M53 24.5H57.2V29H61.7V33.2H57.2V37.8H53V33.2H48.5V29H53V24.5Z" fill="#FF8A33"/>
</svg>
